# xmcd
#
# Track frame offsets:
#	150
#	17952
#	41995
#	67224
#	88136
#	104692
#	123437
#	146575
#	165982
#	184954
#	210625
#
# Disc length: 3059 seconds
#
# Revision: 1
# Processed by: cddbd v1.5.2PL0 Copyright (c) Steve Scherf et al.
# Submitted via: audiograbber 1.83.01
#
DISCID=a90bf10b
DTITLE=Boyz II Men - Let´s stay together
DYEAR=1900
DGENRE=
TTITLE0=Let´s stay together
TTITLE1=You make me feel brand new
TTITLE2=I miss you
TTITLE3=Let it whip
TTITLE4=Sara smile
TTITLE5=What you won´t do for love
TTITLE6=Cutie pie
TTITLE7=Time will reveal
TTITLE8=Close the door
TTITLE9=For the love of you
TTITLE10=Human nature
EXTD=
EXTT0=
EXTT1=
EXTT2=
EXTT3=
EXTT4=
EXTT5=
EXTT6=
EXTT7=
EXTT8=
EXTT9=
EXTT10=
PLAYORDER=
